<svg width="22" height="23" viewBox="0 0 22 23" fill="none" xmlns="http://www.w3.org/2000/svg">
<path d="M11 2.3335C5.93726 2.3335 1.83334 6.43741 1.83334 11.5002C1.83334 16.5629 5.93726 20.6668 11 20.6668C16.0628 20.6668 20.1667 16.5629 20.1667 11.5002C20.1667 6.43741 16.0628 2.3335 11 2.3335Z" fill="#919191"/>
<path d="M12.2407 13.9296H14.613L14.9857 11.5197H12.2407V10.2025C12.2407 9.20146 12.568 8.31367 13.5043 8.31367H15.009V6.21083C14.7446 6.17508 14.1854 6.09717 13.129 6.09717C10.9225 6.09717 9.62913 7.26225 9.62913 9.91692V11.5202H7.36084V13.9301H9.62867V20.5539C10.0778 20.6208 10.533 20.6667 11 20.6667C11.4221 20.6667 11.8342 20.6282 12.2407 20.5732V13.9296Z" fill="white"/>
</svg>
