<svg width="22" height="23" viewBox="0 0 22 23" fill="none" xmlns="http://www.w3.org/2000/svg">
<path d="M15.5911 19.7456L6.42447 19.7543C4.4078 19.7561 2.75642 18.108 2.75413 16.0913L2.74542 6.92465C2.74359 4.90798 4.39176 3.25661 6.40842 3.25432L15.5751 3.24561C17.5918 3.24377 19.2431 4.89194 19.2454 6.90861L19.2541 16.0753C19.2564 18.0924 17.6078 19.7438 15.5911 19.7456Z" fill="#919191"/>
<path d="M15.5911 19.7456L6.42447 19.7543C4.4078 19.7561 2.75642 18.108 2.75413 16.0913L2.74542 6.92465C2.74359 4.90798 4.39176 3.25661 6.40842 3.25432L15.5751 3.24561C17.5918 3.24377 19.2431 4.89194 19.2454 6.90861L19.2541 16.0753C19.2564 18.0924 17.6078 19.7438 15.5911 19.7456Z" fill="#919191"/>
<path d="M11 14.7082C9.23128 14.7082 7.79166 13.269 7.79166 11.4998C7.79166 9.73067 9.23128 8.2915 11 8.2915C12.7687 8.2915 14.2083 9.73067 14.2083 11.4998C14.2083 13.269 12.7687 14.7082 11 14.7082ZM11 9.20817C9.73636 9.20817 8.70832 10.2362 8.70832 11.4998C8.70832 12.7635 9.73636 13.7915 11 13.7915C12.2636 13.7915 13.2917 12.7635 13.2917 11.4998C13.2917 10.2362 12.2636 9.20817 11 9.20817Z" fill="white"/>
<path d="M14.4375 8.75C14.8172 8.75 15.125 8.4422 15.125 8.0625C15.125 7.6828 14.8172 7.375 14.4375 7.375C14.0578 7.375 13.75 7.6828 13.75 8.0625C13.75 8.4422 14.0578 8.75 14.4375 8.75Z" fill="white"/>
<path d="M13.75 17.4582H8.24999C6.48128 17.4582 5.04166 16.019 5.04166 14.2498V8.74984C5.04166 6.98067 6.48128 5.5415 8.24999 5.5415H13.75C15.5187 5.5415 16.9583 6.98067 16.9583 8.74984V14.2498C16.9583 16.019 15.5187 17.4582 13.75 17.4582ZM8.24999 6.45817C6.98636 6.45817 5.95832 7.48621 5.95832 8.74984V14.2498C5.95832 15.5135 6.98636 16.5415 8.24999 16.5415H13.75C15.0136 16.5415 16.0417 15.5135 16.0417 14.2498V8.74984C16.0417 7.48621 15.0136 6.45817 13.75 6.45817H8.24999Z" fill="white"/>
</svg>
