<svg width="22" height="23" viewBox="0 0 22 23" fill="none" xmlns="http://www.w3.org/2000/svg">
<path d="M11 2.3335C8.56886 2.3335 6.23728 3.29927 4.5182 5.01835C2.79911 6.73743 1.83334 9.06901 1.83334 11.5002C1.83334 13.9313 2.79911 16.2629 4.5182 17.982C6.23728 19.7011 8.56886 20.6668 11 20.6668C13.4312 20.6668 15.7627 19.7011 17.4818 17.982C19.2009 16.2629 20.1667 13.9313 20.1667 11.5002C20.1667 9.06901 19.2009 6.73743 17.4818 5.01835C15.7627 3.29927 13.4312 2.3335 11 2.3335Z" fill="#919191"/>
<path d="M15.5604 7.37484L13.8435 16.1409C13.8435 16.1409 13.7697 16.5415 13.2729 16.5415C13.0089 16.5415 12.8728 16.4159 12.8728 16.4159L9.15384 13.33L7.33426 12.4128L4.99905 11.7918C4.99905 11.7918 4.58334 11.6717 4.58334 11.328C4.58334 11.0415 5.01097 10.9049 5.01097 10.9049L14.7808 7.02376C14.7803 7.0233 15.0792 6.91605 15.2969 6.91651C15.4307 6.91651 15.5833 6.9738 15.5833 7.14567C15.5833 7.26026 15.5604 7.37484 15.5604 7.37484Z" fill="white"/>
<path d="M10.5417 14.4814L8.97142 16.0278C8.97142 16.0278 8.90313 16.0805 8.81192 16.0828C8.7803 16.0837 8.74638 16.0786 8.71155 16.0631L9.15338 13.3291L10.5417 14.4814Z" fill="#919191"/>
<path d="M13.7028 8.83978C13.6253 8.73895 13.4823 8.72062 13.3815 8.79716L7.33334 12.4166C7.33334 12.4166 8.29859 15.1171 8.44572 15.5846C8.5933 16.0526 8.71155 16.0636 8.71155 16.0636L9.15339 13.3296L13.6597 9.16062C13.7606 9.08408 13.7793 8.94062 13.7028 8.83978Z" fill="#919191"/>
</svg>
