<svg width="22" height="23" viewBox="0 0 22 23" fill="none" xmlns="http://www.w3.org/2000/svg">
<path d="M20.6305 16.3398C20.4293 17.3665 19.5745 18.1489 18.5185 18.2955C16.8589 18.5398 14.0928 18.8332 10.9748 18.8332C7.90716 18.8332 5.14111 18.5398 3.43107 18.2955C2.37507 18.1489 1.51982 17.3665 1.31907 16.3398C1.11786 15.2155 0.916656 13.5532 0.916656 11.4998C0.916656 9.4465 1.11786 7.78413 1.31907 6.65984C1.52028 5.63317 2.37507 4.8508 3.43107 4.70413C5.0907 4.45984 7.85674 4.1665 10.9748 4.1665C14.0928 4.1665 16.8084 4.45984 18.5185 4.70413C19.5745 4.8508 20.4297 5.63317 20.6305 6.65984C20.8317 7.78413 21.0833 9.4465 21.0833 11.4998C21.0329 13.5532 20.8317 15.2155 20.6305 16.3398Z" fill="#919191"/>
<path opacity="0.05" d="M14.828 10.7852L9.5865 7.29086C9.32204 7.1144 8.98425 7.0979 8.70421 7.24823C8.42417 7.39811 8.25 7.68823 8.25 8.00586V14.9945C8.25 15.3121 8.42417 15.6027 8.70421 15.7526C8.83162 15.8209 8.9705 15.8544 9.10937 15.8544C9.27621 15.8544 9.44213 15.8058 9.58604 15.71L14.8275 12.2156C15.0673 12.0557 15.2102 11.7885 15.2102 11.5006C15.2107 11.2124 15.0673 10.9451 14.828 10.7852Z" fill="#919191"/>
<path opacity="0.07" d="M9.47878 7.48366L14.4242 10.7809C14.74 11.0078 14.9527 11.2108 14.9527 11.4744C14.9527 11.7379 14.85 11.9217 14.6249 12.0858C14.4549 12.2095 9.56266 15.4609 9.56266 15.4609C9.1497 15.7378 8.47916 15.6791 8.47916 14.7739V8.17436C8.47916 7.25541 9.20516 7.30124 9.47878 7.48366Z" fill="#919191"/>
<path d="M8.70834 14.9686V8.03174C8.70834 7.6912 9.08784 7.4877 9.37155 7.67699L14.5746 11.1457C14.828 11.3143 14.828 11.6865 14.5746 11.8556L9.37155 15.3243C9.08784 15.5127 8.70834 15.3096 8.70834 14.9686Z" fill="white"/>
</svg>
