<svg width="16" height="20" viewBox="0 0 16 20" fill="none" xmlns="http://www.w3.org/2000/svg">
<path fill-rule="evenodd" clip-rule="evenodd" d="M8 16C12.4183 16 16 12.4183 16 8C16 3.58172 12.4183 0 8 0C3.58172 0 0 3.58172 0 8C0 12.4183 3.58172 16 8 16ZM8.03596 5.24155L10.4774 6.99059V6.99184C10.6394 7.10798 10.7711 7.25977 10.8619 7.43489C10.9527 7.61002 11 7.80358 11 7.99989C11 8.19621 10.9527 8.38976 10.8619 8.56489C10.7711 8.74002 10.6394 8.8918 10.4774 9.00795L8.03596 10.757C7.84542 10.894 7.6197 10.9766 7.38393 10.9957C7.14816 11.0148 6.91159 10.9696 6.70056 10.8652C6.48952 10.7607 6.31229 10.6011 6.18861 10.404C6.06493 10.207 5.99963 9.98031 6 9.74918V6.24936C6.0002 6.01845 6.06583 5.79211 6.18963 5.59541C6.31343 5.39872 6.49057 5.23936 6.7014 5.135C6.91223 5.03063 7.14852 4.98535 7.38408 5.00416C7.61964 5.02296 7.84527 5.10513 8.03596 5.24155Z" fill="#979EA9"/>
</svg>
