<svg width="40" height="40" viewBox="0 0 40 40" fill="none" xmlns="http://www.w3.org/2000/svg">
<g clip-path="url(#clip0_290_908)">
<path d="M18.5009 26.0001C18.4351 26.0005 18.3699 25.9879 18.309 25.963C18.2481 25.9381 18.1927 25.9014 18.1459 25.8551C18.0991 25.8086 18.0619 25.7533 18.0365 25.6924C18.0111 25.6315 17.998 25.5661 17.998 25.5001C17.998 25.4341 18.0111 25.3687 18.0365 25.3078C18.0619 25.2469 18.0991 25.1916 18.1459 25.1451L22.2309 21.0601C22.5118 20.7788 22.6696 20.3976 22.6696 20.0001C22.6696 19.6026 22.5118 19.2213 22.2309 18.9401L18.1459 14.8551C18.0518 14.7609 17.9989 14.6332 17.9989 14.5001C17.9989 14.3669 18.0518 14.2392 18.1459 14.1451C18.2401 14.0509 18.3678 13.998 18.5009 13.998C18.6341 13.998 18.7618 14.0509 18.8559 14.1451L22.9409 18.2301C23.1738 18.4623 23.3585 18.7382 23.4845 19.0419C23.6105 19.3457 23.6754 19.6713 23.6754 20.0001C23.6754 20.3289 23.6105 20.6545 23.4845 20.9583C23.3585 21.262 23.1738 21.5379 22.9409 21.7701L18.8559 25.8551C18.8092 25.9014 18.7538 25.9381 18.6929 25.963C18.632 25.9879 18.5667 26.0005 18.5009 26.0001Z" fill="white"/>
</g>
<rect x="0.5" y="0.5" width="39" height="39" rx="19.5" stroke="white" stroke-opacity="0.7"/>
<defs>
<clipPath id="clip0_290_908">
<rect width="12" height="12" fill="white" transform="translate(15 14)"/>
</clipPath>
</defs>
</svg>
