<svg width="22" height="22" viewBox="0 0 22 22" fill="none" xmlns="http://www.w3.org/2000/svg">
<path d="M11 1.83337C5.93726 1.83337 1.83334 5.93729 1.83334 11C1.83334 16.0628 5.93726 20.1667 11 20.1667C16.0628 20.1667 20.1667 16.0628 20.1667 11C20.1667 5.93729 16.0628 1.83337 11 1.83337Z" fill="url(#paint0_linear_1_3702)"/>
<path d="M12.2407 13.4296H14.613L14.9857 11.0197H12.2407V9.70246C12.2407 8.70146 12.568 7.81367 13.5043 7.81367H15.009V5.71083C14.7446 5.67508 14.1854 5.59717 13.129 5.59717C10.9225 5.59717 9.62913 6.76225 9.62913 9.41692V11.0202H7.36084V13.4301H9.62867V20.0539C10.0778 20.1208 10.533 20.1667 11 20.1667C11.4221 20.1667 11.8342 20.1282 12.2407 20.0732V13.4296Z" fill="white"/>
<defs>
<linearGradient id="paint0_linear_1_3702" x1="4.58013" y1="4.58017" x2="18.6152" y2="18.6152" gradientUnits="userSpaceOnUse">
<stop stop-color="#2AA4F4"/>
<stop offset="1" stop-color="#007AD9"/>
</linearGradient>
</defs>
</svg>
