<svg width="22" height="22" viewBox="0 0 22 22" fill="none" xmlns="http://www.w3.org/2000/svg">
<path d="M16.9347 13.9819C16.9347 14.2664 16.6999 14.4994 16.4128 14.4994H5.36673C5.0797 14.4994 4.84483 14.2664 4.84483 13.9819V3.15755C4.84483 2.87305 5.0797 2.64001 5.36673 2.64001H16.4132C16.7002 2.64001 16.9351 2.87305 16.9351 3.15755V13.9819H16.9347Z" fill="#0C9D58"/>
<path opacity="0.2" d="M16.9347 5.4227L12.7948 4.8905L16.9347 5.99982V5.4227Z" fill="#004D40"/>
<path opacity="0.2" d="M11.0895 3.20432L4.82015 6.0004L11.7492 3.48134V3.47448C11.6273 3.21368 11.3306 3.09202 11.0895 3.20432Z" fill="#004D40"/>
<path opacity="0.2" d="M16.4132 2.64001H5.36673C5.0797 2.64001 4.84483 2.87305 4.84483 3.15755V3.2736C4.84483 2.9891 5.0797 2.75606 5.36673 2.75606H16.4132C16.7002 2.75606 16.9351 2.9891 16.9351 3.2736V3.15755C16.9347 2.87305 16.7002 2.64001 16.4132 2.64001Z" fill="white"/>
<path d="M7.52556 13.6493C7.45091 13.9272 7.59989 14.2108 7.85663 14.2794L18.0879 17.0278C18.3446 17.0964 18.6157 16.9251 18.69 16.6472L21.1003 7.66281C21.1749 7.38485 21.0259 7.10128 20.7692 7.03265L10.538 4.28431C10.2812 4.21568 10.0101 4.38694 9.9358 4.66489L7.52556 13.6493Z" fill="#EA4335"/>
<path opacity="0.2" d="M18.795 10.8698L19.3331 14.135L18.795 16.1418V10.8698Z" fill="#3E2723"/>
<path opacity="0.2" d="M12.8433 5.02368L13.3255 5.15314L13.6247 7.16839L12.8433 5.02368Z" fill="#3E2723"/>
<path opacity="0.2" d="M20.7695 7.03265L10.5383 4.28431C10.2815 4.21568 10.0104 4.38694 9.9361 4.66489L7.52586 13.6493C7.5218 13.6643 7.52086 13.6795 7.51805 13.6945L9.91017 4.77814C9.98482 4.50018 10.2559 4.32892 10.5123 4.39755L20.7436 7.14589C20.9863 7.21078 21.1303 7.46815 21.0825 7.73113L21.1009 7.66281C21.1752 7.38485 21.0262 7.10128 20.7695 7.03265Z" fill="white"/>
<path d="M15.5833 12.5428C15.6817 12.8132 15.558 13.1087 15.3084 13.1994L4.5122 17.1242C4.26233 17.215 3.97749 17.068 3.87911 16.7976L0.693984 8.05712C0.5956 7.78665 0.719282 7.49123 0.968833 7.40045L11.7651 3.47571C12.0149 3.38493 12.2998 3.53186 12.3982 3.80233L15.5833 12.5428Z" fill="#FFC107"/>
<path opacity="0.2" d="M0.734906 8.16731C0.636523 7.89684 0.760205 7.60142 1.00976 7.51064L11.806 3.58559C12.0531 3.49574 12.3338 3.63893 12.4353 3.90378L12.3982 3.80208C12.2995 3.53162 12.0146 3.38468 11.7651 3.47546L0.96884 7.40052C0.718977 7.4913 0.595295 7.78672 0.693991 8.05719L3.87911 16.7976C3.88005 16.8004 3.88193 16.8029 3.88317 16.806L0.734906 8.16731Z" fill="white"/>
<path d="M18.795 18.8374C18.795 19.1247 18.5595 19.36 18.2718 19.36H3.50808C3.22043 19.36 2.98493 19.1247 2.98493 18.8374V7.69086C2.98493 7.40355 3.22043 7.16833 3.50808 7.16833H18.2718C18.5595 7.16833 18.795 7.40355 18.795 7.69086V18.8374Z" fill="#4285F4"/>
<path d="M15.9759 11.5807H11.5583V10.4196H15.9759C16.1043 10.4196 16.2083 10.5234 16.2083 10.6517V11.3483C16.2083 11.4765 16.1043 11.5807 15.9759 11.5807ZM15.9759 15.9927H11.5583V14.8316H15.9759C16.1043 14.8316 16.2083 14.9355 16.2083 15.0637V15.7603C16.2083 15.8888 16.1043 15.9927 15.9759 15.9927ZM16.6733 13.7865H11.5583V12.6254H16.6733C16.8017 12.6254 16.9057 12.7293 16.9057 12.8575V13.5541C16.9057 13.6826 16.8017 13.7865 16.6733 13.7865Z" fill="white"/>
<path opacity="0.2" d="M18.2718 19.244H3.50808C3.22043 19.244 2.98493 19.0087 2.98493 18.7214V18.8375C2.98493 19.1248 3.22043 19.36 3.50808 19.36H18.2718C18.5595 19.36 18.795 19.1248 18.795 18.8375V18.7214C18.795 19.0087 18.5595 19.244 18.2718 19.244Z" fill="#1A237E"/>
<path opacity="0.2" d="M3.50808 7.28438H18.2718C18.5595 7.28438 18.795 7.5196 18.795 7.80691V7.69086C18.795 7.40355 18.5595 7.16833 18.2718 7.16833H3.50808C3.22043 7.16833 2.98493 7.40355 2.98493 7.69086V7.80691C2.98493 7.5196 3.22043 7.28438 3.50808 7.28438Z" fill="white"/>
<path d="M7.60582 12.7418V13.789H9.11031C8.986 14.427 8.42444 14.8896 7.60582 14.8896C6.69258 14.8896 5.95205 14.1181 5.95205 13.206C5.95205 12.2938 6.69258 11.5223 7.60582 11.5223C8.01716 11.5223 8.3854 11.6636 8.67617 11.9403V11.941L9.4723 11.1458C8.98881 10.6956 8.35822 10.4196 7.60551 10.4196C6.0648 10.4196 4.81548 11.6671 4.81548 13.2063C4.81548 14.7455 6.06448 15.993 7.60551 15.993C9.21681 15.993 10.2769 14.8615 10.2769 13.2696C10.2769 13.0871 10.26 12.9112 10.2328 12.7418H7.60582Z" fill="white"/>
<g opacity="0.2">
<path d="M7.63486 13.7891V13.9051H9.11124C9.12217 13.8671 9.13154 13.8284 9.13935 13.7891H7.63486Z" fill="#1A237E"/>
<path d="M7.63486 15.9927C6.11351 15.9927 4.87732 14.7764 4.8464 13.264C4.84608 13.2834 4.84483 13.3027 4.84483 13.322C4.84483 14.8612 6.09383 16.1088 7.63486 16.1088C9.24616 16.1088 10.3062 14.9773 10.3062 13.3854C10.3062 13.3726 10.3046 13.3607 10.3046 13.3479C10.27 14.8984 9.21962 15.9927 7.63486 15.9927ZM8.70521 11.9404C8.41443 11.664 8.04589 11.5224 7.63486 11.5224C6.72161 11.5224 5.98108 12.2938 5.98108 13.206C5.98108 13.2257 5.98327 13.2447 5.98389 13.264C6.01481 12.3774 6.74098 11.6384 7.63486 11.6384C8.0462 11.6384 8.41443 11.7797 8.70521 12.0564V12.0571L9.55943 11.2039C9.53944 11.1851 9.51726 11.1686 9.49665 11.1505L8.70552 11.941L8.70521 11.9404Z" fill="#1A237E"/>
</g>
<path opacity="0.2" d="M16.2083 11.4643V11.3483C16.2083 11.4765 16.1043 11.5804 15.9759 11.5804H11.5583V11.6964H15.9759C16.1043 11.6967 16.2083 11.5928 16.2083 11.4643ZM15.9759 15.9927H11.5583V16.1087H15.9759C16.1043 16.1087 16.2083 16.0049 16.2083 15.8766V15.7606C16.2083 15.8888 16.1043 15.9927 15.9759 15.9927ZM16.6733 13.7865H11.5583V13.9026H16.6733C16.8017 13.9026 16.9057 13.7987 16.9057 13.6705V13.5544C16.9057 13.6826 16.8017 13.7865 16.6733 13.7865Z" fill="#1A237E"/>
<path d="M20.7696 7.03269L16.9351 6.00261V3.15755C16.9351 2.87305 16.7002 2.64001 16.4132 2.64001H5.36679C5.07976 2.64001 4.84489 2.87305 4.84489 3.15755V5.99138L0.968893 7.40049C0.719031 7.49127 0.595349 7.78669 0.694045 8.05716L2.98497 14.3444V18.8375C2.98497 19.1248 3.22047 19.36 3.50812 19.36H18.2719C18.5595 19.36 18.795 19.1248 18.795 18.8375V16.2579L21.1009 7.66285C21.1753 7.38489 21.0263 7.10132 20.7696 7.03269Z" fill="url(#paint0_radial_1_3714)"/>
<line x1="12.5534" y1="9.40857" x2="16.6511" y2="9.40857" stroke="#DBDBDB"/>
<defs>
<radialGradient id="paint0_radial_1_3714" cx="0" cy="0" r="1" gradientUnits="userSpaceOnUse" gradientTransform="translate(5.27123 3.99465) scale(19.8971 19.8735)">
<stop stop-color="white" stop-opacity="0.1"/>
<stop offset="1" stop-color="white" stop-opacity="0"/>
</radialGradient>
</defs>
</svg>
