<svg width="22" height="22" viewBox="0 0 22 22" fill="none" xmlns="http://www.w3.org/2000/svg">
<path d="M15.5911 19.2454L6.42447 19.2541C4.4078 19.2559 2.75642 17.6077 2.75413 15.5911L2.74542 6.4244C2.74359 4.40774 4.39176 2.75636 6.40842 2.75407L15.5751 2.74536C17.5918 2.74353 19.2431 4.3917 19.2454 6.40836L19.2541 15.575C19.2564 17.5922 17.6078 19.2435 15.5911 19.2454Z" fill="url(#paint0_radial_1_3694)"/>
<path d="M15.5911 19.2454L6.42447 19.2541C4.4078 19.2559 2.75642 17.6077 2.75413 15.5911L2.74542 6.4244C2.74359 4.40774 4.39176 2.75636 6.40842 2.75407L15.5751 2.74536C17.5918 2.74353 19.2431 4.3917 19.2454 6.40836L19.2541 15.575C19.2564 17.5922 17.6078 19.2435 15.5911 19.2454Z" fill="url(#paint1_radial_1_3694)"/>
<path d="M11 14.2083C9.23128 14.2083 7.79166 12.7691 7.79166 11C7.79166 9.23079 9.23128 7.79163 11 7.79163C12.7687 7.79163 14.2083 9.23079 14.2083 11C14.2083 12.7691 12.7687 14.2083 11 14.2083ZM11 8.70829C9.73636 8.70829 8.70832 9.73633 8.70832 11C8.70832 12.2636 9.73636 13.2916 11 13.2916C12.2636 13.2916 13.2917 12.2636 13.2917 11C13.2917 9.73633 12.2636 8.70829 11 8.70829Z" fill="white"/>
<path d="M14.4375 8.25C14.8172 8.25 15.125 7.9422 15.125 7.5625C15.125 7.1828 14.8172 6.875 14.4375 6.875C14.0578 6.875 13.75 7.1828 13.75 7.5625C13.75 7.9422 14.0578 8.25 14.4375 8.25Z" fill="white"/>
<path d="M13.75 16.9583H8.24999C6.48128 16.9583 5.04166 15.5191 5.04166 13.75V8.24996C5.04166 6.48079 6.48128 5.04163 8.24999 5.04163H13.75C15.5187 5.04163 16.9583 6.48079 16.9583 8.24996V13.75C16.9583 15.5191 15.5187 16.9583 13.75 16.9583ZM8.24999 5.95829C6.98636 5.95829 5.95832 6.98633 5.95832 8.24996V13.75C5.95832 15.0136 6.98636 16.0416 8.24999 16.0416H13.75C15.0136 16.0416 16.0417 15.0136 16.0417 13.75V8.24996C16.0417 6.98633 15.0136 5.95829 13.75 5.95829H8.24999Z" fill="white"/>
<defs>
<radialGradient id="paint0_radial_1_3694" cx="0" cy="0" r="1" gradientUnits="userSpaceOnUse" gradientTransform="translate(8.88251 19.266) scale(20.5787)">
<stop stop-color="#FFDD55"/>
<stop offset="0.328" stop-color="#FF543F"/>
<stop offset="0.348" stop-color="#FC5245"/>
<stop offset="0.504" stop-color="#E64771"/>
<stop offset="0.643" stop-color="#D53E91"/>
<stop offset="0.761" stop-color="#CC39A4"/>
<stop offset="0.841" stop-color="#C837AB"/>
</radialGradient>
<radialGradient id="paint1_radial_1_3694" cx="0" cy="0" r="1" gradientUnits="userSpaceOnUse" gradientTransform="translate(5.40192 2.53925) scale(13.6643 9.10452)">
<stop stop-color="#4168C9"/>
<stop offset="0.999" stop-color="#4168C9" stop-opacity="0"/>
</radialGradient>
</defs>
</svg>
