<svg width="22" height="22" viewBox="0 0 22 22" fill="none" xmlns="http://www.w3.org/2000/svg">
<path d="M11 1.83337C8.56883 1.83337 6.23725 2.79914 4.51817 4.51823C2.79908 6.23731 1.83331 8.56889 1.83331 11C1.83331 13.4312 2.79908 15.7628 4.51817 17.4819C6.23725 19.2009 8.56883 20.1667 11 20.1667C13.4311 20.1667 15.7627 19.2009 17.4818 17.4819C19.2009 15.7628 20.1666 13.4312 20.1666 11C20.1666 8.56889 19.2009 6.23731 17.4818 4.51823C15.7627 2.79914 13.4311 1.83337 11 1.83337Z" fill="#29B6F6"/>
<path d="M15.5604 6.87496L13.8435 15.641C13.8435 15.641 13.7697 16.0416 13.2729 16.0416C13.0089 16.0416 12.8727 15.916 12.8727 15.916L9.15381 12.8301L7.33423 11.913L4.99902 11.2919C4.99902 11.2919 4.58331 11.1718 4.58331 10.8281C4.58331 10.5416 5.01094 10.405 5.01094 10.405L14.7808 6.52388C14.7803 6.52342 15.0791 6.41617 15.2969 6.41663C15.4307 6.41663 15.5833 6.47392 15.5833 6.64579C15.5833 6.76038 15.5604 6.87496 15.5604 6.87496Z" fill="white"/>
<path d="M10.5417 13.9815L8.97142 15.5279C8.97142 15.5279 8.90313 15.5806 8.81192 15.5829C8.7803 15.5838 8.74638 15.5788 8.71155 15.5632L9.15338 12.8292L10.5417 13.9815Z" fill="#B0BEC5"/>
<path d="M13.7028 8.33978C13.6253 8.23895 13.4823 8.22062 13.3815 8.29716L7.33331 11.9166C7.33331 11.9166 8.29856 14.6171 8.44569 15.0846C8.59327 15.5526 8.71152 15.5636 8.71152 15.5636L9.15335 12.8296L13.6597 8.66062C13.7605 8.58408 13.7793 8.44062 13.7028 8.33978Z" fill="#CFD8DC"/>
</svg>
