<svg width="22" height="22" viewBox="0 0 22 22" fill="none" xmlns="http://www.w3.org/2000/svg">
<path fill-rule="evenodd" clip-rule="evenodd" d="M18.3352 19.2358L3.68088 19.25C3.17717 19.2505 2.76467 18.8389 2.76421 18.3352L2.75 3.68088C2.74954 3.17717 3.16113 2.76467 3.66483 2.76421L18.3191 2.75C18.8228 2.74954 19.2353 3.16113 19.2358 3.66483L19.25 18.3191C19.2505 18.8228 18.8389 19.2353 18.3352 19.2358Z" fill="url(#paint0_linear_1_3707)"/>
<path fill-rule="evenodd" clip-rule="evenodd" d="M13.387 9.44492C14.1093 9.96101 14.9944 10.2644 15.95 10.2644V8.42605C15.769 8.42605 15.5888 8.40726 15.4119 8.36967V9.81663C14.4563 9.81663 13.5717 9.51276 12.8489 8.99713V12.7481C12.8489 14.6245 11.3268 16.1458 9.44946 16.1458C8.74913 16.1458 8.09784 15.934 7.55701 15.571C8.17438 16.2017 9.03513 16.5931 9.98755 16.5931C11.8649 16.5931 13.387 15.0719 13.387 13.1955V9.44492ZM14.0511 7.59051C13.6822 7.18763 13.4397 6.66651 13.387 6.09038V5.85388H12.8769C13.0052 6.58584 13.4434 7.21147 14.0511 7.59051ZM8.74455 14.1314C8.5383 13.861 8.42692 13.5305 8.42738 13.1904C8.42738 12.332 9.12359 11.6362 9.98251 11.6362C10.1425 11.6362 10.3015 11.6605 10.4541 11.7091V9.82992C10.2758 9.80563 10.0962 9.79509 9.91605 9.79876V11.2613C9.76342 11.2127 9.60438 11.1884 9.44396 11.1884C8.58505 11.1884 7.88884 11.8842 7.88884 12.7426C7.8893 13.3499 8.23717 13.8756 8.74455 14.1314Z" fill="#EC407A"/>
<path fill-rule="evenodd" clip-rule="evenodd" d="M12.8489 8.99713C13.5713 9.51321 14.4563 9.81663 15.4119 9.81663V8.36967C14.8784 8.25601 14.4063 7.97734 14.0511 7.59005C13.4434 7.21101 13.0057 6.58584 12.8773 5.85388H11.5376V13.1955C11.5344 14.0512 10.8396 14.7442 9.9825 14.7442C9.47742 14.7442 9.02871 14.5035 8.74455 14.1309C8.23717 13.8752 7.8893 13.3495 7.8893 12.7426C7.8893 11.8842 8.5855 11.1884 9.44442 11.1884C9.60896 11.1884 9.76755 11.2141 9.9165 11.2613V9.79921C8.07217 9.83726 6.589 11.3433 6.589 13.1959C6.589 14.1208 6.95842 14.9591 7.55792 15.5715C8.09875 15.9345 8.75005 16.1462 9.45038 16.1462C11.3277 16.1462 12.8498 14.625 12.8498 12.7486L12.8489 8.99713Z" fill="white"/>
<path fill-rule="evenodd" clip-rule="evenodd" d="M15.4119 8.37005V7.97863C14.9307 7.97955 14.4595 7.8448 14.0511 7.58996C14.4123 7.98551 14.888 8.25821 15.4119 8.37005ZM12.8769 5.8538C12.8645 5.78367 12.8553 5.71355 12.8489 5.64251V5.40601H10.9991V12.748C10.9963 13.6038 10.301 14.2968 9.44396 14.2968C9.19234 14.2968 8.95492 14.2372 8.74454 14.1308C9.02871 14.5035 9.47742 14.7441 9.9825 14.7441C10.8396 14.7441 11.5344 14.0511 11.5376 13.1954V5.8538H12.8769ZM9.91604 9.79913V9.38251C9.76159 9.36142 9.60575 9.35088 9.44946 9.35088C7.57167 9.35088 6.05 10.8721 6.05 12.7485C6.05 13.925 6.64813 14.9618 7.557 15.5714C6.9575 14.959 6.58809 14.1208 6.58809 13.1958C6.58809 11.3433 8.07171 9.83717 9.91604 9.79913Z" fill="#81D4FA"/>
<defs>
<linearGradient id="paint0_linear_1_3707" x1="10.9895" y1="2.82288" x2="10.9895" y2="19.2711" gradientUnits="userSpaceOnUse">
<stop stop-color="#4C4C4C"/>
<stop offset="1" stop-color="#343434"/>
</linearGradient>
</defs>
</svg>
