<svg width="22" height="22" viewBox="0 0 22 22" fill="none" xmlns="http://www.w3.org/2000/svg">
<path d="M20.6305 15.84C20.4293 16.8666 19.5745 17.649 18.5185 17.7957C16.8589 18.04 14.0929 18.3333 10.9748 18.3333C7.90719 18.3333 5.14115 18.04 3.4311 17.7957C2.3751 17.649 1.51985 16.8666 1.3191 15.84C1.1179 14.7157 0.916687 13.0533 0.916687 11C0.916687 8.94663 1.1179 7.28425 1.3191 6.15996C1.52031 5.13329 2.3751 4.35092 3.4311 4.20425C5.09073 3.95996 7.85677 3.66663 10.9748 3.66663C14.0929 3.66663 16.8085 3.95996 18.5185 4.20425C19.5745 4.35092 20.4298 5.13329 20.6305 6.15996C20.8317 7.28425 21.0834 8.94663 21.0834 11C21.0329 13.0533 20.8317 14.7157 20.6305 15.84Z" fill="url(#paint0_linear_1_3680)"/>
<path opacity="0.05" d="M14.828 10.2849L9.5865 6.79061C9.32204 6.61416 8.98425 6.59766 8.70421 6.74799C8.42417 6.89786 8.25 7.18799 8.25 7.50561V14.4943C8.25 14.8119 8.42417 15.1025 8.70421 15.2524C8.83162 15.3207 8.9705 15.3541 9.10937 15.3541C9.27621 15.3541 9.44213 15.3055 9.58604 15.2097L14.8275 11.7154C15.0673 11.5554 15.2102 11.2882 15.2102 11.0004C15.2107 10.7121 15.0673 10.4449 14.828 10.2849Z" fill="black"/>
<path opacity="0.07" d="M9.47881 6.98366L14.4242 10.2809C14.74 10.5078 14.9527 10.7108 14.9527 10.9744C14.9527 11.2379 14.85 11.4217 14.625 11.5858C14.4549 11.7095 9.56269 14.9609 9.56269 14.9609C9.14973 15.2378 8.47919 15.1791 8.47919 14.2739V7.67436C8.47919 6.75541 9.20519 6.80124 9.47881 6.98366Z" fill="black"/>
<path d="M8.70831 14.4686V7.53174C8.70831 7.1912 9.08781 6.9877 9.37152 7.17699L14.5745 10.6457C14.828 10.8143 14.828 11.1865 14.5745 11.3556L9.37152 14.8243C9.08781 15.0127 8.70831 14.8096 8.70831 14.4686Z" fill="white"/>
<defs>
<linearGradient id="paint0_linear_1_3680" x1="4.49902" y1="4.52417" x2="18.9044" y2="18.9296" gradientUnits="userSpaceOnUse">
<stop stop-color="#F44F5A"/>
<stop offset="0.443" stop-color="#EE3D4A"/>
<stop offset="1" stop-color="#E52030"/>
</linearGradient>
</defs>
</svg>
