<svg width="16" height="20" viewBox="0 0 16 20" fill="none" xmlns="http://www.w3.org/2000/svg">
<g clip-path="url(#clip0_290_453)">
<path d="M11.814 2L10.872 0.778667C10.6843 0.537204 10.4442 0.341611 10.1698 0.206703C9.89532 0.0717943 9.59378 0.0011087 9.28797 0L6.71197 0C6.40617 0.0011087 6.10463 0.0717943 5.8302 0.206703C5.55576 0.341611 5.31562 0.537204 5.12797 0.778667L4.18597 2H11.814Z" fill="#979EA9"/>
<path d="M7.99998 11.9998C9.47274 11.9998 10.6666 10.8059 10.6666 9.33317C10.6666 7.86041 9.47274 6.6665 7.99998 6.6665C6.52722 6.6665 5.33331 7.86041 5.33331 9.33317C5.33331 10.8059 6.52722 11.9998 7.99998 11.9998Z" fill="#979EA9"/>
<path d="M12.6667 3.3335H3.33333C2.4496 3.33455 1.60237 3.68608 0.97748 4.31098C0.352588 4.93587 0.00105857 5.7831 0 6.66683L0 12.6668C0.00105857 13.5506 0.352588 14.3978 0.97748 15.0227C1.60237 15.6476 2.4496 15.9991 3.33333 16.0002H12.6667C13.5504 15.9991 14.3976 15.6476 15.0225 15.0227C15.6474 14.3978 15.9989 13.5506 16 12.6668V6.66683C15.9989 5.7831 15.6474 4.93587 15.0225 4.31098C14.3976 3.68608 13.5504 3.33455 12.6667 3.3335V3.3335ZM8 13.3335C7.20887 13.3335 6.43552 13.0989 5.77772 12.6594C5.11992 12.2198 4.60723 11.5951 4.30448 10.8642C4.00173 10.1333 3.92252 9.32906 4.07686 8.55313C4.2312 7.77721 4.61216 7.06448 5.17157 6.50507C5.73098 5.94566 6.44371 5.5647 7.21964 5.41036C7.99556 5.25601 8.79983 5.33523 9.53073 5.63798C10.2616 5.94073 10.8864 6.45342 11.3259 7.11121C11.7654 7.76901 12 8.54237 12 9.3335C11.9989 10.394 11.5772 11.4108 10.8273 12.1608C10.0773 12.9107 9.06054 13.3324 8 13.3335V13.3335Z" fill="#979EA9"/>
</g>
<defs>
<clipPath id="clip0_290_453">
<rect width="16" height="16" fill="white"/>
</clipPath>
</defs>
</svg>
