<svg width="17" height="16" viewBox="0 0 17 16" fill="none" xmlns="http://www.w3.org/2000/svg">
<path fill-rule="evenodd" clip-rule="evenodd" d="M16 1.229C16.2876 1.229 16.5208 1.46219 16.5208 1.74984V5.9165C16.5208 6.20415 16.2876 6.43734 16 6.43734H11.8333C11.5457 6.43734 11.3125 6.20415 11.3125 5.9165C11.3125 5.62886 11.5457 5.39567 11.8333 5.39567H15.4792V1.74984C15.4792 1.46219 15.7124 1.229 16 1.229Z" fill="#182840"/>
<path fill-rule="evenodd" clip-rule="evenodd" d="M9.46332 1.56413C8.17333 1.31002 6.83617 1.43996 5.62121 1.93724C4.40631 2.43451 3.36882 3.27647 2.6393 4.3557C1.90984 5.43487 1.52085 6.70308 1.52085 7.99992C1.52085 9.29676 1.90984 10.565 2.6393 11.6441C3.36882 12.7234 4.40631 13.5653 5.62121 14.0626C6.83617 14.5599 8.17333 14.6898 9.46332 14.4357C10.7533 14.1816 11.9372 13.5551 12.8657 12.6363C13.0702 12.434 13.3999 12.4357 13.6023 12.6402C13.8046 12.8447 13.8029 13.1744 13.5984 13.3768C12.5235 14.4404 11.1544 15.1643 9.66464 15.4577C8.17488 15.7512 6.63051 15.6013 5.22663 15.0266C3.82269 14.452 2.62172 13.4782 1.7763 12.2275C0.930836 10.9767 0.479187 9.50547 0.479187 7.99992C0.479187 6.49437 0.930836 5.02313 1.7763 3.77236C2.62172 2.52165 3.82269 1.54784 5.22663 0.973202C6.63051 0.398588 8.17488 0.248646 9.66464 0.542102C11.1543 0.835531 12.5232 1.55928 13.598 2.62271C13.5981 2.62283 13.5979 2.62259 13.598 2.62271L16.3657 5.35108C16.5705 5.55302 16.5729 5.88278 16.3709 6.08763C16.169 6.29247 15.8392 6.29483 15.6344 6.09289L12.8657 3.36351C11.9372 2.44474 10.7533 1.81823 9.46332 1.56413Z" fill="#182840"/>
</svg>
