<svg width="18" height="20" viewBox="0 0 18 20" fill="none" xmlns="http://www.w3.org/2000/svg">
<path d="M1.05871 11.3745C0.0949493 8.19412 1.13099 4.70048 3.68496 2.5802C5.94981 0.700866 9.15432 0.194891 11.901 1.25503C14.5996 2.29107 16.5753 4.74867 17.0572 7.59177C17.5631 10.4831 16.3825 13.4948 14.1177 15.3501C11.2987 17.639 7.22679 17.7354 4.23913 15.6874C3.85362 15.4223 3.51631 16.0488 3.87772 16.2897C6.769 18.2654 10.6481 18.3859 13.6358 16.5307C16.3584 14.8441 17.9968 11.7841 17.8764 8.60372C17.7559 5.4474 15.9247 2.48383 13.1298 1.01409C10.2867 -0.455649 6.769 -0.335178 4.09456 1.42369C0.745489 3.59215 -0.772437 7.76043 0.384078 11.5673C0.504548 12.001 1.17918 11.8082 1.05871 11.3745Z" fill="#182840"/>
<path d="M12.9369 9.44726C12.6718 11.6398 10.6479 13.2059 8.45538 12.9409C6.26282 12.6759 4.6967 10.652 4.96174 8.45941C5.22677 6.26685 7.25067 4.70073 9.44323 4.96577C11.6358 5.2308 13.2019 7.23061 12.9369 9.44726Z" fill="#FF7534"/>
</svg>
